<?xml version="1.0" standalone="no"?>
<!DOCTYPE svg PUBLIC "-//W3C//DTD SVG 20010904//EN"
 "http://www.w3.org/TR/2001/REC-SVG-20010904/DTD/svg10.dtd">
<svg version="1.0" xmlns="http://www.w3.org/2000/svg"
 width="256.000000pt" height="256.000000pt" viewBox="0 0 256.000000 256.000000"
 preserveAspectRatio="xMidYMid meet">
<metadata>
Created by potrace 1.14, written by Peter Selinger 2001-2017
</metadata>
<g transform="translate(0.000000,256.000000) scale(0.100000,-0.100000)"
fill="#000000" stroke="none">
<path d="M1 1668 c1 -491 4 -882 7 -868 4 27 37 60 59 60 7 0 13 5 13 10 0 6
11 10 25 10 14 0 25 -4 25 -9 0 -5 16 -12 35 -15 19 -4 35 -11 35 -16 0 -6 5
-10 10 -10 11 0 25 -10 64 -46 12 -12 32 -25 44 -28 16 -5 22 -15 22 -36 0
-16 3 -35 6 -44 5 -12 0 -16 -20 -16 -23 0 -26 4 -26 34 0 48 -22 66 -81 66
-27 0 -49 5 -49 10 0 6 -22 10 -50 10 -27 0 -50 -4 -50 -10 0 -5 -15 -10 -34
-10 l-35 0 -1 -380 -1 -380 316 0 c261 0 319 3 331 14 8 8 14 19 14 24 0 6 4
12 9 14 5 1 11 21 15 43 3 22 5 41 6 43 1 8 90 0 90 -8 0 -5 8 -10 18 -10 14
0 15 2 2 10 -12 8 -11 10 8 10 13 0 22 6 22 15 0 10 10 15 28 15 19 0 23 -3
13 -9 -9 -6 11 -11 58 -16 39 -4 71 -11 71 -16 0 -5 29 -9 65 -9 37 0 65 -4
65 -10 0 -6 70 -10 190 -10 120 0 190 4 190 10 0 19 48 11 55 -10 3 -11 10
-20 15 -20 17 0 40 -32 40 -56 l0 -24 470 0 470 0 0 315 0 315 -36 0 -37 0 5
44 c6 47 26 76 52 76 14 0 16 89 16 905 l0 905 -1280 0 -1280 0 1 -892z m859
-118 c0 -5 -4 -10 -10 -10 -5 0 -12 -16 -16 -35 -4 -25 -11 -35 -25 -35 -14 0
-20 -10 -25 -40 -4 -22 -10 -40 -15 -40 -5 0 -9 -15 -9 -34 0 -19 -6 -36 -12
-38 -10 -4 -13 -61 -13 -243 0 -182 3 -239 13 -242 6 -3 12 -11 12 -19 0 -8 4
-14 9 -14 5 0 13 -10 17 -22 4 -13 15 -30 25 -39 11 -9 19 -21 19 -27 0 -16
53 -69 78 -76 12 -4 22 -12 22 -17 0 -5 7 -9 15 -9 8 0 15 -4 15 -10 0 -5 27
-12 60 -16 33 -4 60 -11 60 -15 0 -5 10 -9 23 -9 22 0 22 -1 22 -160 0 -159 0
-160 -22 -160 -13 0 -23 -4 -23 -10 0 -5 -18 -10 -40 -10 -22 0 -40 4 -40 9 0
5 -22 12 -50 16 -27 4 -50 11 -50 16 0 5 -13 9 -30 9 -16 0 -30 5 -30 10 0 6
-7 10 -15 10 -17 0 -20 27 -4 32 6 2 14 35 16 74 5 66 4 72 -21 97 -14 14 -26
35 -26 46 0 11 -7 26 -15 35 -9 9 -15 33 -15 60 l0 46 -36 0 c-59 0 -64 -12
-64 -159 0 -72 -3 -131 -6 -131 -12 0 -144 141 -144 153 0 7 -9 19 -20 27 -10
8 -22 27 -25 42 -4 15 -11 28 -16 28 -5 0 -9 14 -9 30 0 17 -4 30 -10 30 -19
0 -11 75 10 90 10 8 22 27 25 42 4 15 11 28 16 28 5 0 9 14 9 30 0 17 4 30 9
30 6 0 12 15 14 33 2 17 5 -18 5 -80 2 -102 4 -112 22 -118 11 -3 20 -11 20
-16 0 -5 18 -9 40 -9 22 0 40 -4 40 -10 0 -5 -5 -10 -12 -10 -6 0 -9 -2 -6 -5
10 -11 38 8 38 25 0 10 7 21 16 24 14 5 15 26 12 158 -2 110 -6 152 -15 156
-7 2 -13 8 -13 14 0 19 -29 38 -59 38 -29 0 -31 -3 -31 -35 0 -24 -5 -35 -14
-35 -8 0 -16 -6 -19 -12 -2 -8 -8 -9 -13 -4 -5 5 -4 11 4 13 14 5 18 203 3
203 -5 0 -11 26 -13 57 -3 31 -10 59 -16 61 -7 2 -12 15 -12 28 0 21 4 24 40
24 22 0 40 5 40 10 0 6 9 10 20 10 11 0 20 5 20 10 0 6 11 10 24 10 24 0 56
23 56 41 0 5 9 9 19 9 10 0 21 7 25 15 4 11 20 15 56 15 27 0 50 5 50 10 0 6
5 10 10 10 6 0 10 -4 10 -10z m358 -30 c6 -16 51 -60 62 -60 5 0 11 -9 15 -19
3 -11 15 -23 25 -26 10 -3 22 -15 25 -25 3 -10 14 -22 24 -25 14 -4 20 -20 25
-65 4 -33 11 -60 16 -60 6 0 10 -11 10 -25 0 -14 5 -25 10 -25 6 0 10 -50 10
-130 0 -80 -4 -130 -10 -130 -5 0 -10 -11 -10 -25 0 -14 -4 -25 -10 -25 -5 0
-12 -17 -16 -37 -5 -27 -24 -54 -70 -100 -34 -35 -70 -63 -78 -63 -9 0 -16 -4
-16 -10 0 -6 -32 -10 -75 -10 -43 0 -75 4 -75 10 0 6 -11 10 -25 10 -14 0 -25
5 -25 10 0 6 -11 10 -24 10 -14 0 -31 7 -40 15 -8 8 -17 15 -20 15 -14 0 -46
36 -46 52 0 9 -9 20 -20 23 -11 3 -20 15 -20 25 0 10 -7 20 -15 24 -8 3 -15
14 -15 25 0 11 -6 22 -12 25 -9 3 -8 8 5 16 25 16 21 55 -8 85 -14 14 -21 25
-15 25 6 0 10 40 10 110 0 67 4 110 10 110 6 0 10 13 10 29 0 18 9 35 25 47
14 10 25 24 25 31 0 7 4 13 9 13 5 0 13 10 17 22 6 21 76 98 90 98 3 0 14 9
23 19 9 11 33 22 51 24 53 7 144 -1 148 -13z m352 -20 c0 -6 27 -10 60 -10 47
0 60 -3 60 -15 0 -8 5 -15 10 -15 6 0 10 -9 10 -20 0 -17 7 -20 41 -20 l42 0
-6 35 -6 35 40 0 c39 0 52 -13 24 -24 -8 -3 -15 -15 -15 -26 0 -11 -4 -20 -10
-20 -5 0 -10 -5 -10 -11 0 -6 -7 -17 -15 -25 -8 -9 -15 -26 -15 -40 0 -13 -4
-24 -10 -24 -5 0 -10 -11 -10 -25 0 -14 -4 -25 -9 -25 -5 0 -12 -29 -16 -65
-3 -36 -11 -65 -16 -65 -5 0 -9 -38 -9 -85 0 -78 -2 -85 -20 -85 -11 0 -20 -4
-20 -10 0 -5 -7 -10 -15 -10 -8 0 -15 -4 -15 -10 0 -5 -7 -10 -15 -10 -8 0
-26 -12 -40 -26 -20 -20 -25 -34 -23 -62 3 -35 5 -37 41 -40 23 -2 37 1 37 8
0 20 29 41 65 47 31 5 35 4 29 -13 -3 -12 -3 -14 3 -8 4 7 28 13 53 15 l45 4
3 -50 c2 -40 -2 -56 -18 -75 -21 -24 -27 -25 -136 -24 l-114 1 0 -39 c0 -35
-2 -38 -28 -38 -16 0 -34 -8 -42 -20 -12 -17 -26 -20 -97 -20 -46 0 -83 3 -83
6 0 8 57 64 65 64 14 0 55 50 61 74 3 14 10 26 15 26 5 0 9 9 9 20 0 11 5 20
10 20 6 0 10 11 10 25 0 14 4 25 10 25 5 0 12 27 16 60 4 33 11 60 15 60 5 0
9 38 9 85 0 47 -4 85 -9 85 -4 0 -11 33 -14 72 -4 40 -11 74 -17 76 -5 2 -10
15 -10 28 0 13 -4 24 -10 24 -5 0 -10 16 -10 36 0 32 -18 64 -35 64 -8 0 -65
56 -65 64 0 3 45 6 100 6 60 0 100 -4 100 -10z m340 -100 c0 -5 11 -10 25 -10
14 0 25 -4 25 -10 0 -6 32 -10 75 -10 43 0 75 4 75 10 0 14 29 12 44 -3 8 -7
17 -23 20 -35 4 -12 12 -22 17 -22 5 0 9 -7 9 -15 0 -8 4 -15 10 -15 5 0 12
-11 16 -25 3 -14 10 -25 15 -25 5 0 9 -11 9 -25 0 -14 5 -25 10 -25 6 0 10
-43 10 -110 0 -67 -4 -110 -10 -110 -5 0 -10 -11 -10 -25 0 -14 -4 -25 -9 -25
-5 0 -12 -16 -15 -35 -4 -19 -11 -35 -16 -35 -6 0 -10 -9 -10 -19 0 -10 -7
-21 -15 -25 -8 -3 -15 -14 -15 -25 0 -11 -9 -22 -20 -26 -11 -3 -20 -15 -20
-25 0 -20 -26 -30 -87 -30 -24 0 -43 -4 -43 -10 0 -15 -39 -12 -56 4 -16 17
-19 36 -4 36 6 0 10 27 10 60 0 33 -4 60 -10 60 -5 0 -10 7 -10 15 0 8 -4 15
-10 15 -5 0 -10 7 -10 15 0 19 -36 55 -55 55 -8 0 -15 5 -15 10 0 6 -11 10
-25 10 -24 0 -25 2 -25 65 0 37 4 65 10 65 6 0 10 20 10 45 0 25 4 45 10 45 5
0 12 27 16 60 4 33 11 60 15 60 5 0 9 7 9 15 0 8 4 15 10 15 5 0 12 16 16 35
6 31 24 50 24 25z m460 -230 c0 -11 4 -20 10 -20 5 0 12 -27 16 -60 4 -33 11
-60 15 -60 5 0 9 -63 9 -140 0 -77 -4 -140 -9 -140 -4 0 -11 -27 -15 -60 -4
-33 -11 -60 -16 -60 -6 0 -10 -9 -10 -20 0 -11 -4 -20 -10 -20 -5 0 -10 -11
-10 -25 0 -14 -7 -28 -15 -31 -8 -4 -15 -19 -15 -34 0 -21 -6 -31 -22 -36 -12
-3 -32 -17 -45 -30 -13 -13 -30 -24 -38 -24 -8 0 -15 -4 -15 -10 0 -5 -7 -10
-15 -10 -8 0 -15 -4 -15 -9 0 -5 -13 -11 -29 -14 -18 -4 -32 -14 -36 -27 -4
-13 -15 -20 -33 -20 -15 0 -37 -3 -49 -6 -22 -6 -23 -4 -23 60 0 37 -4 66 -10
66 -5 0 -10 11 -10 24 0 13 -6 26 -12 29 -16 5 28 47 49 47 7 0 13 5 13 10 0
6 7 10 15 10 8 0 15 4 15 9 0 5 15 12 33 15 18 3 39 15 47 26 8 11 19 20 26
20 20 0 54 37 54 58 0 12 11 32 25 46 13 13 27 36 31 50 3 14 10 26 15 26 5 0
9 9 9 20 0 11 5 20 10 20 6 0 10 7 10 15 0 8 4 15 10 15 5 0 12 23 16 50 4 28
10 50 15 50 5 0 9 36 9 80 0 47 -4 80 -10 80 -5 0 -10 11 -10 25 0 14 5 25 10
25 6 0 10 -9 10 -20z m-2340 -110 c0 -5 -4 -10 -10 -10 -5 0 -10 5 -10 10 0 6
5 10 10 10 6 0 10 -4 10 -10z m584 -126 c11 -81 8 -124 -9 -124 -12 0 -15 16
-15 85 0 92 13 114 24 39z m-394 -264 c0 -5 16 -10 35 -10 55 0 41 -17 -20
-25 -63 -7 -185 3 -185 16 0 5 -9 9 -20 9 -11 0 -20 5 -20 10 0 6 42 10 105
10 63 0 105 -4 105 -10z m1510 -150 c0 -5 19 -10 43 -10 31 0 38 -3 27 -10
-11 -7 -7 -10 18 -10 33 0 82 -33 69 -47 -4 -3 -7 -2 -7 4 0 6 -40 14 -95 18
-52 4 -95 11 -95 16 0 5 -18 9 -40 9 -22 0 -40 5 -40 10 0 6 7 10 15 10 8 0
15 5 15 10 0 6 20 10 45 10 25 0 45 -4 45 -10z m-970 -119 c0 -17 -17 -13 -24
5 -10 27 -7 36 9 20 8 -8 15 -19 15 -25z m1040 -71 c-10 -6 0 -10 35 -12 27
-2 50 -8 53 -15 2 -7 -3 -13 -12 -13 -9 0 -16 -4 -16 -10 0 -5 -22 -10 -50
-10 -27 0 -50 -4 -50 -10 0 -6 -83 -10 -230 -10 -147 0 -230 4 -230 10 0 6 -7
10 -15 10 -8 0 -15 5 -15 10 0 6 -12 10 -26 10 -16 0 -24 5 -22 13 3 8 34 14
89 17 77 5 80 6 34 11 -27 3 67 6 210 7 162 1 254 -2 245 -8z"/>
<path d="M570 1280 c0 -5 5 -10 10 -10 6 0 10 5 10 10 0 6 -4 10 -10 10 -5 0
-10 -4 -10 -10z"/>
<path d="M520 720 c0 -5 5 -10 10 -10 6 0 10 5 10 10 0 6 -4 10 -10 10 -5 0
-10 -4 -10 -10z"/>
<path d="M860 550 c0 -5 5 -10 11 -10 5 0 7 5 4 10 -3 6 -8 10 -11 10 -2 0 -4
-4 -4 -10z"/>
<path d="M1005 500 c-4 -6 5 -10 19 -10 14 0 26 5 26 10 0 6 -9 10 -19 10 -11
0 -23 -4 -26 -10z"/>
<path d="M1230 1331 c0 -5 -12 -12 -27 -15 -29 -8 -83 -61 -83 -82 0 -8 -4
-14 -10 -14 -5 0 -10 -18 -10 -40 0 -22 4 -40 10 -40 5 0 13 -12 16 -26 l7
-26 102 4 c78 2 105 7 118 20 9 9 17 21 17 27 0 6 5 11 10 11 6 0 10 20 10 45
0 25 -4 45 -10 45 -5 0 -10 7 -10 15 0 8 -4 15 -10 15 -5 0 -10 8 -10 18 0 28
-36 52 -80 52 -22 0 -40 -4 -40 -9z"/>
<path d="M1455 1450 c3 -5 8 -10 11 -10 2 0 4 5 4 10 0 6 -5 10 -11 10 -5 0
-7 -4 -4 -10z"/>
<path d="M1486 1423 c-6 -14 -5 -15 5 -6 7 7 10 15 7 18 -3 3 -9 -2 -12 -12z"/>
<path d="M1993 1313 c-9 -3 -13 -29 -13 -79 l0 -73 45 -46 c43 -42 49 -45 100
-45 30 0 55 4 55 9 0 5 9 13 20 16 17 6 20 15 20 76 0 59 -4 74 -22 94 -13 13
-29 31 -36 40 -9 11 -31 15 -85 14 -40 0 -78 -3 -84 -6z"/>
</g>
</svg>
